<svg width="50" height="50" viewBox="0 0 50 50" fill="none" xmlns="http://www.w3.org/2000/svg">
<path d="M24.9996 49.9992C38.8065 49.9992 49.9992 38.8065 49.9992 24.9996C49.9992 11.1927 38.8065 0 24.9996 0C11.1927 0 0 11.1927 0 24.9996C0 38.8065 11.1927 49.9992 24.9996 49.9992Z" fill="#FFDF00"/>
<path fill-rule="evenodd" clip-rule="evenodd" d="M25.0036 11.5008C21.335 11.5008 20.8756 11.5161 19.4358 11.5823C17.9971 11.6508 17.0156 11.8764 16.1581 12.2083C15.2722 12.5532 14.5187 13.0138 13.7686 13.7674C13.0139 14.5186 12.5533 15.2722 12.2084 16.1533C11.8741 17.0155 11.6497 17.9959 11.5824 19.4333C11.5162 20.8731 11.5009 21.3314 11.5009 25.0012C11.5009 28.671 11.5162 29.1269 11.5824 30.5667C11.6509 32.0054 11.8765 32.9869 12.2084 33.8444C12.5533 34.7302 13.0139 35.4838 13.7675 36.2338C14.5187 36.9886 15.2722 37.4492 16.1534 37.7941C17.0156 38.126 17.9959 38.3516 19.4334 38.4201C20.8732 38.4863 21.3315 38.5016 25.0013 38.5016C28.6711 38.5016 29.127 38.4863 30.5668 38.4201C32.0054 38.3516 32.9869 38.126 33.8492 37.7941C34.7303 37.4492 35.4839 36.9886 36.2339 36.2338C36.9887 35.4838 37.4493 34.7303 37.7942 33.8456C38.1261 32.9869 38.3505 32.0054 38.4202 30.5691C38.4863 29.1269 38.5017 28.671 38.5017 25.0012C38.5017 21.3314 38.4863 20.8731 38.4202 19.4333C38.3505 17.9959 38.1261 17.0155 37.7942 16.1533C37.4493 15.2722 36.9887 14.5186 36.2339 13.7674C35.4839 13.0138 34.7303 12.5532 33.8456 12.2083C32.9858 11.8764 32.0019 11.6508 30.5668 11.5823C29.1223 11.5162 28.6675 11.5008 24.9954 11.5008H25.0036L25.0036 11.5008ZM32.2086 16.1781C31.3157 16.1781 30.5893 16.8986 30.5893 17.7963C30.5893 18.6904 31.3157 19.4156 32.2086 19.4156C33.1039 19.4156 33.8279 18.6904 33.8279 17.7963C33.8279 16.8998 33.1039 16.1781 32.2086 16.1781ZM25.0036 18.0691C21.172 18.0691 18.0715 21.172 18.0715 25.0012C18.0715 28.8305 21.172 31.931 25.0036 31.931C28.8305 31.931 31.9334 28.8305 31.9334 25.0012C31.9334 21.172 28.8305 18.0691 25.0036 18.0691ZM25.0036 20.4999C27.4899 20.4999 29.5038 22.5149 29.5038 25.0012C29.5038 27.4875 27.4899 29.5025 25.0036 29.5025C22.515 29.5025 20.5035 27.4875 20.5035 25.0012C20.5035 22.5149 22.515 20.4999 25.0036 20.4999ZM23.7906 13.9339C24.1509 13.9339 24.5513 13.9339 25.0036 13.9339C28.6073 13.9339 29.0384 13.9458 30.4593 14.0084C31.7739 14.0698 32.4885 14.2918 32.961 14.4749C33.5941 14.7194 34.0382 15.0135 34.5154 15.4871C34.989 15.9643 35.2831 16.4084 35.5276 17.0415C35.7107 17.514 35.9327 18.2286 35.9941 19.5432C36.0567 20.9641 36.0686 21.3952 36.0686 24.9953C36.0686 28.6025 36.0567 29.0277 35.9941 30.4534C35.9327 31.768 35.7107 32.4849 35.5276 32.9586C35.2831 33.5893 34.989 34.0346 34.5154 34.5094C34.0382 34.983 33.5941 35.2712 32.961 35.5216C32.4885 35.7024 31.7739 35.9256 30.4593 35.9835C29.0384 36.0508 28.6073 36.0614 25.0036 36.0614C21.3976 36.0614 20.9701 36.0508 19.5444 35.9835C18.2322 35.9244 17.514 35.7024 17.0428 35.5216C16.4097 35.2712 15.9644 34.983 15.4872 34.5094C15.0136 34.0346 14.7195 33.5893 14.475 32.9562C14.2919 32.4826 14.071 31.768 14.0096 30.451C13.947 29.0254 13.9352 28.6025 13.9352 24.9953C13.9352 21.3881 13.947 20.9641 14.0096 19.542C14.071 18.2274 14.2919 17.5128 14.475 17.0368C14.7195 16.4037 15.0136 15.9549 15.4872 15.4824C15.9644 15.0088 16.4097 14.7182 17.0428 14.4726C17.514 14.2848 18.2322 14.0639 19.5444 14.0072C20.7917 13.9493 21.2736 13.934 23.7906 13.9281V13.934V13.9339Z" fill="white"/>
</svg>
