<svg width="50" height="50" viewBox="0 0 50 50" fill="none" xmlns="http://www.w3.org/2000/svg">
<path d="M24.9996 49.9992C38.8065 49.9992 49.9992 38.8065 49.9992 24.9996C49.9992 11.1927 38.8065 0 24.9996 0C11.1927 0 0 11.1927 0 24.9996C0 38.8065 11.1927 49.9992 24.9996 49.9992Z" fill="#FFDF00"/>
<path fill-rule="evenodd" clip-rule="evenodd" d="M40.7447 17.5293C40.975 16.7639 40.7447 16.2017 39.6533 16.2017H36.0426C35.1249 16.2017 34.702 16.6872 34.4729 17.2234C34.4729 17.2234 32.6362 21.6988 30.0353 24.6055C29.1944 25.4465 28.8117 25.7146 28.3522 25.7146C28.1231 25.7146 27.7912 25.4465 27.7912 24.6811V17.5293C27.7912 16.6116 27.5242 16.2017 26.7588 16.2017H21.0858C20.5118 16.2017 20.1669 16.6281 20.1669 17.0321C20.1669 17.9026 21.4673 18.1034 21.602 20.5507V25.867C21.602 27.0328 21.3917 27.2442 20.9323 27.2442C19.7086 27.2442 16.731 22.7488 14.9652 17.6061C14.6191 16.6057 14.2718 16.2017 13.3494 16.2017H9.73862C8.70749 16.2017 8.50079 16.6872 8.50079 17.2234C8.50079 18.179 9.72563 22.9224 14.201 29.1954C17.1834 33.4782 21.387 35.8003 25.2116 35.8003C27.5065 35.8003 27.7912 35.2854 27.7912 34.3972V31.1585C27.7912 30.1273 28.0085 29.9218 28.7349 29.9218C29.27 29.9218 30.1889 30.1899 32.3303 32.2546C34.7788 34.7031 35.1816 35.8004 36.5588 35.8004H40.1695C41.2007 35.8004 41.7168 35.2854 41.4192 34.2672C41.0932 33.2526 39.925 31.7809 38.3742 30.0364C37.532 29.0419 36.2706 27.9706 35.8879 27.4355C35.3517 26.7469 35.5052 26.441 35.8879 25.8292C35.8879 25.8292 40.2865 19.6329 40.7447 17.5293L40.7447 17.5293Z" fill="white"/>
</svg>
