<svg width="271" height="163" viewBox="0 0 271 163" fill="none" xmlns="http://www.w3.org/2000/svg">
<path d="M266.6 110.4C266.6 126.267 261.467 138.867 251.2 148.2C240.467 157.533 227.4 162.2 212 162.2C192.4 162.2 177 155.667 165.8 142.6C154.6 129.533 149 112.267 149 90.7999C149 69.7999 152.267 51.8333 158.8 36.8999C165.333 21.4999 173.5 8.89994 183.3 -0.900063C192.633 -11.1667 202.9 -19.1001 214.1 -24.7001C224.833 -30.7667 234.633 -35.2001 243.5 -38.0001L270.1 -0.200058C257.5 4.93327 246.533 13.3333 237.2 24.9999C227.867 36.6666 222.733 49.0333 221.8 62.0999C232.533 60.6999 242.8 63.9666 252.6 71.8999C261.933 79.8333 266.6 92.6666 266.6 110.4Z" fill="#EFEFEF"/>
<path d="M117.6 110.4C117.6 126.267 112.467 138.867 102.2 148.2C91.4666 157.533 78.4 162.2 63 162.2C43.4 162.2 28 155.667 16.8 142.6C5.59998 129.533 -2.61523e-05 112.267 -2.42756e-05 90.7999C-2.24397e-05 69.7999 3.26664 51.8333 9.79997 36.8999C16.3333 21.4999 24.5 8.89993 34.3 -0.900076C43.6333 -11.1667 53.9 -19.1001 65.1 -24.7001C75.8333 -30.7667 85.6333 -35.2001 94.5 -38.0001L121.1 -0.200071C108.5 4.93326 97.5333 13.3333 88.2 24.9999C78.8666 36.6666 73.7333 49.0333 72.8 62.0999C83.5333 60.6999 93.8 63.9666 103.6 71.8999C112.933 79.8333 117.6 92.6666 117.6 110.4Z" fill="#EFEFEF"/>
</svg>
