<svg width="197" height="50" viewBox="0 0 197 50" fill="none" xmlns="http://www.w3.org/2000/svg">
<path d="M113.944 21.9878H100.959L98.4822 27.9846H91.8504L104.316 1.86668e-05H110.707L123.213 27.9846H116.421L113.944 21.9878H113.944ZM130.843 1.86668e-05H137.315V27.9846H130.843V1.86668e-05ZM166.297 27.9846L160.903 20.1887H160.584H154.951V27.9846H148.479V1.86668e-05H160.584C163.061 1.86668e-05 165.211 0.413404 167.036 1.23907C168.86 2.06474 170.266 3.23766 171.251 4.75672C172.237 6.27577 172.73 8.07483 172.73 10.1539C172.73 12.2329 172.23 14.0254 171.231 15.5312C170.233 17.037 168.814 18.1901 166.976 18.9893L173.249 27.9846H166.297L166.297 27.9846ZM166.177 10.1539C166.177 8.58197 165.671 7.37599 164.659 6.53598C163.647 5.69709 162.169 5.27709 160.224 5.27709H154.951V15.0319H160.224C162.169 15.0319 163.647 14.6053 164.659 13.7521C165.671 12.8999 166.177 11.7006 166.177 10.154V10.1539ZM22.3542 22.787V27.9846H0.7005V1.86668e-05H21.835V5.19656H7.13275V11.2739H20.1164V16.3106H7.13275V22.787H22.3542V22.787ZM49.8405 27.9846L43.0885 18.2695L36.4567 27.9846H29.0257L39.3724 13.752L29.5449 1.86668e-05H36.8955L43.3277 9.07466L49.641 1.86668e-05H56.6321L46.8839 13.5128L57.3111 27.9846H49.8404H49.8405ZM77.2012 1.86668e-05C79.6782 1.86668e-05 81.8289 0.413404 83.6533 1.23907C85.4788 2.06474 86.8832 3.23766 87.8687 4.75672C88.8542 6.27577 89.347 8.07483 89.347 10.1539C89.347 12.2065 88.8542 13.9989 87.8687 15.5312C86.8832 17.0635 85.4788 18.2364 83.6533 19.0488C81.8289 19.8624 79.6782 20.2692 77.2012 20.2692H71.5681V27.9846H65.0961V0H77.2012L77.2012 1.86668e-05ZM76.8418 14.9922C78.7863 14.9922 80.2646 14.5711 81.2766 13.7322C82.2886 12.8922 82.7945 11.7005 82.7945 10.1539C82.7945 8.58192 82.2886 7.37593 81.2766 6.53593C80.2646 5.69703 78.7863 5.27703 76.8418 5.27703H71.5681V14.9922H76.8418V14.9922ZM111.906 17.0701L107.472 6.35628L103.037 17.0701H111.906H111.906Z" fill="white"/>
<path fill-rule="evenodd" clip-rule="evenodd" d="M189.686 13.9559C193.561 13.9559 196.702 17.0999 196.702 20.9769C196.702 24.8539 193.561 27.9978 189.686 27.9978C185.811 27.9978 182.669 24.8539 182.669 20.9769C182.669 17.0999 185.811 13.9559 189.686 13.9559Z" fill="#FFDF00"/>
<path d="M3.056 42.0967C3.78133 42.0967 4.352 42.27 4.768 42.6167C5.184 42.9634 5.392 43.4407 5.392 44.0487C5.392 44.6567 5.184 45.134 4.768 45.4807C4.352 45.8274 3.78133 46.0007 3.056 46.0007H1.672V47.6967H0.872V42.0967H3.056ZM3.032 45.3047C3.53867 45.3047 3.92533 45.198 4.192 44.9847C4.45867 44.766 4.592 44.454 4.592 44.0487C4.592 43.6434 4.45867 43.334 4.192 43.1207C3.92533 42.902 3.53867 42.7927 3.032 42.7927H1.672V45.3047H3.032ZM12.3288 47.0007V47.6967H8.26481V42.0967H12.2168V42.7927H9.06481V44.5127H11.8728V45.1927H9.06481V47.0007H12.3288ZM22.3611 42.0967V47.6967H15.3451V42.0967H16.1371V47.0007H18.4651V42.0967H19.2491V47.0007H21.5771V42.0967H22.3611ZM29.9269 47.0007V47.6967H25.8629V42.0967H29.8149V42.7927H26.6629V44.5127H29.4709V45.1927H26.6629V47.0007H29.9269ZM37.7593 42.0967V47.6967H36.9593V45.2007H33.7433V47.6967H32.9433V42.0967H33.7433V44.5047H36.9593V42.0967H37.7593ZM41.2657 42.0967H42.0577V46.4167L45.3697 42.0967H46.1057V47.6967H45.3217V43.3847L42.0017 47.6967H41.2657V42.0967ZM53.6757 47.0007V47.6967H49.6117V42.0967H53.5637V42.7927H50.4117V44.5127H53.2197V45.1927H50.4117V47.0007H53.6757ZM63.1044 47.7607C62.5444 47.7607 62.0378 47.638 61.5844 47.3927C61.1364 47.142 60.7844 46.8007 60.5284 46.3687C60.2724 45.9314 60.1444 45.4407 60.1444 44.8967C60.1444 44.3527 60.2724 43.8647 60.5284 43.4327C60.7844 42.9954 61.1391 42.654 61.5924 42.4087C62.0458 42.158 62.5524 42.0327 63.1124 42.0327C63.5498 42.0327 63.9498 42.1074 64.3124 42.2567C64.6751 42.4007 64.9844 42.6167 65.2404 42.9047L64.7204 43.4087C64.2991 42.966 63.7738 42.7447 63.1444 42.7447C62.7284 42.7447 62.3524 42.838 62.0164 43.0247C61.6804 43.2114 61.4164 43.47 61.2244 43.8007C61.0378 44.126 60.9444 44.4914 60.9444 44.8967C60.9444 45.302 61.0378 45.67 61.2244 46.0007C61.4164 46.326 61.6804 46.582 62.0164 46.7687C62.3524 46.9554 62.7284 47.0487 63.1444 47.0487C63.7684 47.0487 64.2938 46.8247 64.7204 46.3767L65.2404 46.8807C64.9844 47.1687 64.6724 47.3874 64.3044 47.5367C63.9418 47.686 63.5418 47.7607 63.1044 47.7607ZM72.1666 47.0007V47.6967H68.1026V42.0967H72.0546V42.7927H68.9026V44.5127H71.7106V45.1927H68.9026V47.0007H72.1666ZM80.3749 47.6967L80.3669 43.6167L78.3429 47.0167H77.9749L75.9509 43.6407V47.6967H75.1829V42.0967H75.8389L78.1749 46.0327L80.4789 42.0967H81.1349L81.1429 47.6967H80.3749ZM88.7101 47.0007V47.6967H84.6461V42.0967H88.5981V42.7927H85.4461V44.5127H88.2541V45.1927H85.4461V47.0007H88.7101ZM91.7264 42.0967H92.5184V46.4167L95.8304 42.0967H96.5664V47.6967H95.7824V43.3847L92.4624 47.6967H91.7264V42.0967ZM94.1344 41.7047C93.697 41.7047 93.3584 41.6114 93.1184 41.4247C92.8837 41.2327 92.7637 40.9607 92.7584 40.6087H93.3264C93.3317 40.8167 93.4037 40.9794 93.5424 41.0967C93.6864 41.2087 93.8837 41.2647 94.1344 41.2647C94.3744 41.2647 94.5664 41.2087 94.7104 41.0967C94.8597 40.9794 94.937 40.8167 94.9424 40.6087H95.5024C95.497 40.9554 95.3744 41.2247 95.1344 41.4167C94.8997 41.6087 94.5664 41.7047 94.1344 41.7047ZM104.888 42.0967V47.6967H104.088V45.2007H100.872V47.6967H100.072V42.0967H100.872V44.5047H104.088V42.0967H104.888ZM110.851 44.0487C111.517 44.0487 112.027 44.198 112.379 44.4967C112.736 44.7954 112.915 45.2354 112.915 45.8167C112.915 46.43 112.723 46.8967 112.339 47.2167C111.96 47.5367 111.416 47.6967 110.707 47.6967H108.395V42.0967H109.187V44.0487H110.851ZM110.675 47.0647C111.139 47.0647 111.493 46.9607 111.739 46.7527C111.989 46.5394 112.115 46.2327 112.115 45.8327C112.115 45.0647 111.635 44.6807 110.675 44.6807H109.187V47.0647H110.675ZM113.803 42.0967H114.595V47.6967H113.803V42.0967ZM118.42 42.0967L119.884 44.1447L121.348 42.0967H122.284L120.388 44.7847L122.436 47.6967H121.492L119.884 45.4647L118.284 47.6967H117.364L119.404 44.8167L117.5 42.0967H118.42ZM131.616 47.7607C131.056 47.7607 130.55 47.638 130.096 47.3927C129.648 47.142 129.296 46.8007 129.04 46.3687C128.784 45.9314 128.656 45.4407 128.656 44.8967C128.656 44.3527 128.784 43.8647 129.04 43.4327C129.296 42.9954 129.651 42.654 130.104 42.4087C130.558 42.158 131.064 42.0327 131.624 42.0327C132.062 42.0327 132.462 42.1074 132.824 42.2567C133.187 42.4007 133.496 42.6167 133.752 42.9047L133.232 43.4087C132.811 42.966 132.286 42.7447 131.656 42.7447C131.24 42.7447 130.864 42.838 130.528 43.0247C130.192 43.2114 129.928 43.47 129.736 43.8007C129.55 44.126 129.456 44.4914 129.456 44.8967C129.456 45.302 129.55 45.67 129.736 46.0007C129.928 46.326 130.192 46.582 130.528 46.7687C130.864 46.9554 131.24 47.0487 131.656 47.0487C132.28 47.0487 132.806 46.8247 133.232 46.3767L133.752 46.8807C133.496 47.1687 133.184 47.3874 132.816 47.5367C132.454 47.686 132.054 47.7607 131.616 47.7607ZM141.438 42.0967V47.6967H140.654V42.7927H137.406V47.6967H136.614V42.0967H141.438ZM147.465 47.7607C146.899 47.7607 146.39 47.638 145.937 47.3927C145.483 47.142 145.126 46.798 144.865 46.3607C144.609 45.9234 144.481 45.4354 144.481 44.8967C144.481 44.358 144.609 43.87 144.865 43.4327C145.126 42.9954 145.483 42.654 145.937 42.4087C146.39 42.158 146.899 42.0327 147.465 42.0327C148.025 42.0327 148.531 42.158 148.985 42.4087C149.438 42.654 149.793 42.9954 150.049 43.4327C150.305 43.8647 150.433 44.3527 150.433 44.8967C150.433 45.4407 150.305 45.9314 150.049 46.3687C149.793 46.8007 149.438 47.142 148.985 47.3927C148.531 47.638 148.025 47.7607 147.465 47.7607ZM147.465 47.0487C147.875 47.0487 148.243 46.9554 148.569 46.7687C148.899 46.582 149.158 46.326 149.345 46.0007C149.537 45.67 149.633 45.302 149.633 44.8967C149.633 44.4914 149.537 44.126 149.345 43.8007C149.158 43.47 148.899 43.2114 148.569 43.0247C148.243 42.838 147.875 42.7447 147.465 42.7447C147.054 42.7447 146.681 42.838 146.345 43.0247C146.014 43.2114 145.753 43.47 145.561 43.8007C145.374 44.126 145.281 44.4914 145.281 44.8967C145.281 45.302 145.374 45.67 145.561 46.0007C145.753 46.326 146.014 46.582 146.345 46.7687C146.681 46.9554 147.054 47.0487 147.465 47.0487ZM155.67 42.0967C156.395 42.0967 156.966 42.27 157.382 42.6167C157.798 42.9634 158.006 43.4407 158.006 44.0487C158.006 44.6567 157.798 45.134 157.382 45.4807C156.966 45.8274 156.395 46.0007 155.67 46.0007H154.286V47.6967H153.486V42.0967H155.67ZM155.646 45.3047C156.153 45.3047 156.539 45.198 156.806 44.9847C157.073 44.766 157.206 44.454 157.206 44.0487C157.206 43.6434 157.073 43.334 156.806 43.1207C156.539 42.902 156.153 42.7927 155.646 42.7927H154.286V45.3047H155.646ZM163.477 47.7607C162.912 47.7607 162.402 47.638 161.949 47.3927C161.496 47.142 161.138 46.798 160.877 46.3607C160.621 45.9234 160.493 45.4354 160.493 44.8967C160.493 44.358 160.621 43.87 160.877 43.4327C161.138 42.9954 161.496 42.654 161.949 42.4087C162.402 42.158 162.912 42.0327 163.477 42.0327C164.037 42.0327 164.544 42.158 164.997 42.4087C165.45 42.654 165.805 42.9954 166.061 43.4327C166.317 43.8647 166.445 44.3527 166.445 44.8967C166.445 45.4407 166.317 45.9314 166.061 46.3687C165.805 46.8007 165.45 47.142 164.997 47.3927C164.544 47.638 164.037 47.7607 163.477 47.7607ZM163.477 47.0487C163.888 47.0487 164.256 46.9554 164.581 46.7687C164.912 46.582 165.17 46.326 165.357 46.0007C165.549 45.67 165.645 45.302 165.645 44.8967C165.645 44.4914 165.549 44.126 165.357 43.8007C165.17 43.47 164.912 43.2114 164.581 43.0247C164.256 42.838 163.888 42.7447 163.477 42.7447C163.066 42.7447 162.693 42.838 162.357 43.0247C162.026 43.2114 161.765 43.47 161.573 43.8007C161.386 44.126 161.293 44.4914 161.293 44.8967C161.293 45.302 161.386 45.67 161.573 46.0007C161.765 46.326 162.026 46.582 162.357 46.7687C162.693 46.9554 163.066 47.0487 163.477 47.0487ZM172.986 44.7927C173.365 44.8834 173.65 45.046 173.842 45.2807C174.04 45.51 174.138 45.806 174.138 46.1687C174.138 46.654 173.96 47.03 173.602 47.2967C173.25 47.5634 172.736 47.6967 172.058 47.6967H169.498V42.0967H171.906C172.52 42.0967 172.997 42.222 173.338 42.4727C173.685 42.718 173.858 43.0727 173.858 43.5367C173.858 43.8407 173.781 44.0994 173.626 44.3127C173.477 44.526 173.264 44.686 172.986 44.7927ZM170.29 44.5607H171.85C172.24 44.5607 172.536 44.4834 172.738 44.3287C172.946 44.174 173.05 43.9474 173.05 43.6487C173.05 43.35 172.946 43.1234 172.738 42.9687C172.53 42.8087 172.234 42.7287 171.85 42.7287H170.29V44.5607ZM172.042 47.0647C172.901 47.0647 173.33 46.7447 173.33 46.1047C173.33 45.7847 173.221 45.55 173.002 45.4007C172.789 45.246 172.469 45.1687 172.042 45.1687H170.29V47.0647H172.042Z" fill="white"/>
</svg>
