<svg width="198" height="50" viewBox="0 0 198 50" fill="none" xmlns="http://www.w3.org/2000/svg">
<path d="M114.344 21.9912H101.359L98.8823 27.988H92.2505L104.716 0.00343664H111.108L123.613 27.988H116.821L114.344 21.9912H114.344ZM131.243 0.00343664H137.715V27.988H131.243V0.00343664ZM166.697 27.988L161.304 20.1921H160.984H155.351V27.988H148.879V0.00343664H160.984C163.461 0.00343664 165.612 0.416822 167.436 1.24249C169.26 2.06816 170.666 3.24108 171.651 4.76013C172.637 6.27919 173.13 8.07825 173.13 10.1573C173.13 12.2364 172.63 14.0288 171.632 15.5346C170.633 17.0405 169.214 18.1935 167.376 18.9927L173.649 27.988H166.697L166.697 27.988ZM166.577 10.1574C166.577 8.58539 166.071 7.3794 165.059 6.5394C164.047 5.7005 162.569 5.2805 160.625 5.2805H155.351V15.0353H160.625C162.569 15.0353 164.047 14.6087 165.059 13.7555C166.071 12.9034 166.577 11.704 166.577 10.1574V10.1574ZM22.7544 22.7904V27.988H1.10065V0.00343664H22.2351V5.19998H7.5329V11.2773H20.5165V16.314H7.5329V22.7904H22.7544V22.7904ZM50.2406 27.988L43.4887 18.2729L36.8569 27.988H29.4258L39.7726 13.7555L29.9451 0.00343664H37.2956L43.7279 9.07808L50.0411 0.00343664H57.0323L47.2841 13.5162L57.7113 27.988H50.2406H50.2406ZM77.6013 0.00343664C80.0783 0.00343664 82.229 0.416822 84.0534 1.24249C85.8789 2.06816 87.2833 3.24108 88.2689 4.76013C89.2544 6.27919 89.7471 8.07825 89.7471 10.1573C89.7471 12.2099 89.2544 14.0023 88.2689 15.5346C87.2833 17.0669 85.8789 18.2398 84.0534 19.0523C82.229 19.8658 80.0783 20.2726 77.6013 20.2726H71.9682V27.988H65.4963V0.00341797H77.6013L77.6013 0.00343664ZM77.2419 14.9956C79.1865 14.9956 80.6648 14.5745 81.6767 13.7356C82.6887 12.8956 83.1947 11.7039 83.1947 10.1573C83.1947 8.58533 82.6887 7.37935 81.6767 6.53935C80.6648 5.70045 79.1865 5.28045 77.2419 5.28045H71.9682V14.9956H77.2419V14.9956ZM112.306 17.0735L107.872 6.3597L103.437 17.0735H112.306H112.306Z" fill="#191A1F"/>
<path fill-rule="evenodd" clip-rule="evenodd" d="M190.086 13.9595C193.961 13.9595 197.102 17.1034 197.102 20.9804C197.102 24.8574 193.961 28.0014 190.086 28.0014C186.211 28.0014 183.069 24.8574 183.069 20.9804C183.069 17.1034 186.211 13.9595 190.086 13.9595Z" fill="#FFDF00"/>
<path d="M3.45615 42.1002C4.18148 42.1002 4.75215 42.2735 5.16815 42.6202C5.58415 42.9669 5.79215 43.4442 5.79215 44.0522C5.79215 44.6602 5.58415 45.1375 5.16815 45.4842C4.75215 45.8309 4.18148 46.0042 3.45615 46.0042H2.07215V47.7002H1.27215V42.1002H3.45615ZM3.43215 45.3082C3.93881 45.3082 4.32548 45.2015 4.59215 44.9882C4.85881 44.7695 4.99215 44.4575 4.99215 44.0522C4.99215 43.6469 4.85881 43.3375 4.59215 43.1242C4.32548 42.9055 3.93881 42.7962 3.43215 42.7962H2.07215V45.3082H3.43215ZM12.729 47.0042V47.7002H8.66496V42.1002H12.617V42.7962H9.46496V44.5162H12.273V45.1962H9.46496V47.0042H12.729ZM22.7613 42.1002V47.7002H15.7453V42.1002H16.5373V47.0042H18.8653V42.1002H19.6493V47.0042H21.9773V42.1002H22.7613ZM30.3271 47.0042V47.7002H26.2631V42.1002H30.2151V42.7962H27.0631V44.5162H29.8711V45.1962H27.0631V47.0042H30.3271ZM38.1594 42.1002V47.7002H37.3594V45.2042H34.1434V47.7002H33.3434V42.1002H34.1434V44.5082H37.3594V42.1002H38.1594ZM41.6659 42.1002H42.4579V46.4202L45.7699 42.1002H46.5059V47.7002H45.7219V43.3882L42.4019 47.7002H41.6659V42.1002ZM54.0758 47.0042V47.7002H50.0118V42.1002H53.9638V42.7962H50.8118V44.5162H53.6198V45.1962H50.8118V47.0042H54.0758ZM63.5046 47.7642C62.9446 47.7642 62.4379 47.6415 61.9846 47.3962C61.5366 47.1455 61.1846 46.8042 60.9286 46.3722C60.6726 45.9349 60.5446 45.4442 60.5446 44.9002C60.5446 44.3562 60.6726 43.8682 60.9286 43.4362C61.1846 42.9989 61.5393 42.6575 61.9926 42.4122C62.4459 42.1615 62.9526 42.0362 63.5126 42.0362C63.9499 42.0362 64.3499 42.1109 64.7126 42.2602C65.0753 42.4042 65.3846 42.6202 65.6406 42.9082L65.1206 43.4122C64.6993 42.9695 64.1739 42.7482 63.5446 42.7482C63.1286 42.7482 62.7526 42.8415 62.4166 43.0282C62.0806 43.2149 61.8166 43.4735 61.6246 43.8042C61.4379 44.1295 61.3446 44.4949 61.3446 44.9002C61.3446 45.3055 61.4379 45.6735 61.6246 46.0042C61.8166 46.3295 62.0806 46.5855 62.4166 46.7722C62.7526 46.9589 63.1286 47.0522 63.5446 47.0522C64.1686 47.0522 64.6939 46.8282 65.1206 46.3802L65.6406 46.8842C65.3846 47.1722 65.0726 47.3909 64.7046 47.5402C64.3419 47.6895 63.9419 47.7642 63.5046 47.7642ZM72.5668 47.0042V47.7002H68.5028V42.1002H72.4548V42.7962H69.3028V44.5162H72.1108V45.1962H69.3028V47.0042H72.5668ZM80.7751 47.7002L80.7671 43.6202L78.7431 47.0202H78.3751L76.3511 43.6442V47.7002H75.5831V42.1002H76.2391L78.5751 46.0362L80.8791 42.1002H81.5351L81.5431 47.7002H80.7751ZM89.1102 47.0042V47.7002H85.0462V42.1002H88.9982V42.7962H85.8462V44.5162H88.6542V45.1962H85.8462V47.0042H89.1102ZM92.1265 42.1002H92.9185V46.4202L96.2305 42.1002H96.9665V47.7002H96.1825V43.3882L92.8625 47.7002H92.1265V42.1002ZM94.5345 41.7082C94.0972 41.7082 93.7585 41.6149 93.5185 41.4282C93.2839 41.2362 93.1639 40.9642 93.1585 40.6122H93.7265C93.7319 40.8202 93.8039 40.9829 93.9425 41.1002C94.0865 41.2122 94.2839 41.2682 94.5345 41.2682C94.7745 41.2682 94.9665 41.2122 95.1105 41.1002C95.2599 40.9829 95.3372 40.8202 95.3425 40.6122H95.9025C95.8972 40.9589 95.7745 41.2282 95.5345 41.4202C95.2999 41.6122 94.9665 41.7082 94.5345 41.7082ZM105.288 42.1002V47.7002H104.488V45.2042H101.272V47.7002H100.472V42.1002H101.272V44.5082H104.488V42.1002H105.288ZM111.251 44.0522C111.918 44.0522 112.427 44.2015 112.779 44.5002C113.136 44.7989 113.315 45.2389 113.315 45.8202C113.315 46.4335 113.123 46.9002 112.739 47.2202C112.36 47.5402 111.816 47.7002 111.107 47.7002H108.795V42.1002H109.587V44.0522H111.251ZM111.075 47.0682C111.539 47.0682 111.894 46.9642 112.139 46.7562C112.39 46.5429 112.515 46.2362 112.515 45.8362C112.515 45.0682 112.035 44.6842 111.075 44.6842H109.587V47.0682H111.075ZM114.203 42.1002H114.995V47.7002H114.203V42.1002ZM118.82 42.1002L120.284 44.1482L121.748 42.1002H122.684L120.788 44.7882L122.836 47.7002H121.892L120.284 45.4682L118.684 47.7002H117.764L119.804 44.8202L117.9 42.1002H118.82ZM132.016 47.7642C131.456 47.7642 130.95 47.6415 130.496 47.3962C130.048 47.1455 129.696 46.8042 129.44 46.3722C129.184 45.9349 129.056 45.4442 129.056 44.9002C129.056 44.3562 129.184 43.8682 129.44 43.4362C129.696 42.9989 130.051 42.6575 130.504 42.4122C130.958 42.1615 131.464 42.0362 132.024 42.0362C132.462 42.0362 132.862 42.1109 133.224 42.2602C133.587 42.4042 133.896 42.6202 134.152 42.9082L133.632 43.4122C133.211 42.9695 132.686 42.7482 132.056 42.7482C131.64 42.7482 131.264 42.8415 130.928 43.0282C130.592 43.2149 130.328 43.4735 130.136 43.8042C129.95 44.1295 129.856 44.4949 129.856 44.9002C129.856 45.3055 129.95 45.6735 130.136 46.0042C130.328 46.3295 130.592 46.5855 130.928 46.7722C131.264 46.9589 131.64 47.0522 132.056 47.0522C132.68 47.0522 133.206 46.8282 133.632 46.3802L134.152 46.8842C133.896 47.1722 133.584 47.3909 133.216 47.5402C132.854 47.6895 132.454 47.7642 132.016 47.7642ZM141.839 42.1002V47.7002H141.055V42.7962H137.807V47.7002H137.015V42.1002H141.839ZM147.865 47.7642C147.3 47.7642 146.79 47.6415 146.337 47.3962C145.884 47.1455 145.526 46.8015 145.265 46.3642C145.009 45.9269 144.881 45.4389 144.881 44.9002C144.881 44.3615 145.009 43.8735 145.265 43.4362C145.526 42.9989 145.884 42.6575 146.337 42.4122C146.79 42.1615 147.3 42.0362 147.865 42.0362C148.425 42.0362 148.932 42.1615 149.385 42.4122C149.838 42.6575 150.193 42.9989 150.449 43.4362C150.705 43.8682 150.833 44.3562 150.833 44.9002C150.833 45.4442 150.705 45.9349 150.449 46.3722C150.193 46.8042 149.838 47.1455 149.385 47.3962C148.932 47.6415 148.425 47.7642 147.865 47.7642ZM147.865 47.0522C148.276 47.0522 148.644 46.9589 148.969 46.7722C149.3 46.5855 149.558 46.3295 149.745 46.0042C149.937 45.6735 150.033 45.3055 150.033 44.9002C150.033 44.4949 149.937 44.1295 149.745 43.8042C149.558 43.4735 149.3 43.2149 148.969 43.0282C148.644 42.8415 148.276 42.7482 147.865 42.7482C147.454 42.7482 147.081 42.8415 146.745 43.0282C146.414 43.2149 146.153 43.4735 145.961 43.8042C145.774 44.1295 145.681 44.4949 145.681 44.9002C145.681 45.3055 145.774 45.6735 145.961 46.0042C146.153 46.3295 146.414 46.5855 146.745 46.7722C147.081 46.9589 147.454 47.0522 147.865 47.0522ZM156.07 42.1002C156.796 42.1002 157.366 42.2735 157.782 42.6202C158.198 42.9669 158.406 43.4442 158.406 44.0522C158.406 44.6602 158.198 45.1375 157.782 45.4842C157.366 45.8309 156.796 46.0042 156.07 46.0042H154.686V47.7002H153.886V42.1002H156.07ZM156.046 45.3082C156.553 45.3082 156.94 45.2015 157.206 44.9882C157.473 44.7695 157.606 44.4575 157.606 44.0522C157.606 43.6469 157.473 43.3375 157.206 43.1242C156.94 42.9055 156.553 42.7962 156.046 42.7962H154.686V45.3082H156.046ZM163.877 47.7642C163.312 47.7642 162.802 47.6415 162.349 47.3962C161.896 47.1455 161.538 46.8015 161.277 46.3642C161.021 45.9269 160.893 45.4389 160.893 44.9002C160.893 44.3615 161.021 43.8735 161.277 43.4362C161.538 42.9989 161.896 42.6575 162.349 42.4122C162.802 42.1615 163.312 42.0362 163.877 42.0362C164.437 42.0362 164.944 42.1615 165.397 42.4122C165.85 42.6575 166.205 42.9989 166.461 43.4362C166.717 43.8682 166.845 44.3562 166.845 44.9002C166.845 45.4442 166.717 45.9349 166.461 46.3722C166.205 46.8042 165.85 47.1455 165.397 47.3962C164.944 47.6415 164.437 47.7642 163.877 47.7642ZM163.877 47.0522C164.288 47.0522 164.656 46.9589 164.981 46.7722C165.312 46.5855 165.57 46.3295 165.757 46.0042C165.949 45.6735 166.045 45.3055 166.045 44.9002C166.045 44.4949 165.949 44.1295 165.757 43.8042C165.57 43.4735 165.312 43.2149 164.981 43.0282C164.656 42.8415 164.288 42.7482 163.877 42.7482C163.466 42.7482 163.093 42.8415 162.757 43.0282C162.426 43.2149 162.165 43.4735 161.973 43.8042C161.786 44.1295 161.693 44.4949 161.693 44.9002C161.693 45.3055 161.786 45.6735 161.973 46.0042C162.165 46.3295 162.426 46.5855 162.757 46.7722C163.093 46.9589 163.466 47.0522 163.877 47.0522ZM173.386 44.7962C173.765 44.8869 174.05 45.0495 174.242 45.2842C174.44 45.5135 174.538 45.8095 174.538 46.1722C174.538 46.6575 174.36 47.0335 174.002 47.3002C173.65 47.5669 173.136 47.7002 172.458 47.7002H169.898V42.1002H172.306C172.92 42.1002 173.397 42.2255 173.738 42.4762C174.085 42.7215 174.258 43.0762 174.258 43.5402C174.258 43.8442 174.181 44.1029 174.026 44.3162C173.877 44.5295 173.664 44.6895 173.386 44.7962ZM170.69 44.5642H172.25C172.64 44.5642 172.936 44.4869 173.138 44.3322C173.346 44.1775 173.45 43.9509 173.45 43.6522C173.45 43.3535 173.346 43.1269 173.138 42.9722C172.93 42.8122 172.634 42.7322 172.25 42.7322H170.69V44.5642ZM172.442 47.0682C173.301 47.0682 173.73 46.7482 173.73 46.1082C173.73 45.7882 173.621 45.5535 173.402 45.4042C173.189 45.2495 172.869 45.1722 172.442 45.1722H170.69V47.0682H172.442Z" fill="#191A1F"/>
</svg>
