<svg width="271" height="162" viewBox="0 0 271 162" fill="none" xmlns="http://www.w3.org/2000/svg">
<path d="M4.40003 52.2C4.40003 36.3334 9.53336 23.7334 19.8 14.4C30.5334 5.06669 43.6 0.400024 59 0.400024C78.6 0.400024 94 6.93336 105.2 20C116.4 33.0667 122 50.3334 122 71.8C122 92.8 118.733 110.767 112.2 125.7C105.667 141.1 97.5 153.7 87.7 163.5C78.3667 173.767 68.1 181.7 56.9 187.3C46.1667 193.367 36.3667 197.8 27.5 200.6L0.900024 162.8C13.5 157.667 24.4667 149.267 33.8 137.6C43.1334 125.933 48.2667 113.567 49.2 100.5C38.4667 101.9 28.2 98.6334 18.4 90.7C9.06669 82.7667 4.40003 69.9334 4.40003 52.2Z" fill="#EFEFEF"/>
<path d="M153.4 52.2C153.4 36.3334 158.533 23.7334 168.8 14.4C179.533 5.06669 192.6 0.400024 208 0.400024C227.6 0.400024 243 6.93336 254.2 20C265.4 33.0667 271 50.3334 271 71.8C271 92.8 267.733 110.767 261.2 125.7C254.667 141.1 246.5 153.7 236.7 163.5C227.367 173.767 217.1 181.7 205.9 187.3C195.167 193.367 185.367 197.8 176.5 200.6L149.9 162.8C162.5 157.667 173.467 149.267 182.8 137.6C192.133 125.933 197.267 113.567 198.2 100.5C187.467 101.9 177.2 98.6334 167.4 90.7C158.067 82.7667 153.4 69.9334 153.4 52.2Z" fill="#EFEFEF"/>
</svg>
