<svg width="40" height="43" viewBox="0 0 40 43" fill="none" xmlns="http://www.w3.org/2000/svg">
<path d="M40 7.5C40 11.6421 36.6421 15 32.5 15C28.3579 15 25 11.6421 25 7.5C25 3.35786 28.3579 0 32.5 0C36.6421 0 40 3.35786 40 7.5Z" fill="#FFDF00"/>
<path d="M15 20.5C15 24.6421 11.6421 28 7.5 28C3.35786 28 0 24.6421 0 20.5C0 16.3579 3.35786 13 7.5 13C11.6421 13 15 16.3579 15 20.5Z" fill="#FFDF00"/>
<path d="M40 35.5C40 39.6421 36.6421 43 32.5 43C28.3579 43 25 39.6421 25 35.5C25 31.3579 28.3579 28 32.5 28C36.6421 28 40 31.3579 40 35.5Z" fill="#FFDF00"/>
</svg>
