<svg width="217" height="161" viewBox="0 0 217 161" fill="none" xmlns="http://www.w3.org/2000/svg">
<path d="M212.6 108.4C212.6 124.267 207.467 136.867 197.2 146.2C186.467 155.534 173.4 160.2 158 160.2C138.4 160.2 123 153.667 111.8 140.6C100.6 127.534 95.0001 110.267 95.0001 88.8002C95.0001 67.8002 98.2668 49.8335 104.8 34.9002C111.333 19.5002 119.5 6.90018 129.3 -2.89982C138.633 -13.1665 148.9 -21.0998 160.1 -26.6998C170.833 -32.7665 180.633 -37.1998 189.5 -39.9998L216.1 -2.19981C203.5 2.93352 192.533 11.3335 183.2 23.0002C173.867 34.6669 168.733 47.0335 167.8 60.1002C178.533 58.7002 188.8 61.9668 198.6 69.9002C207.933 77.8335 212.6 90.6669 212.6 108.4Z" fill="#EBEBEB"/>
<path d="M63.6001 108.4C63.6001 124.267 58.4668 136.867 48.2001 146.2C37.4668 155.534 24.4001 160.2 9.00009 160.2C-10.5999 160.2 -25.9999 153.667 -37.1999 140.6C-48.3999 127.534 -53.9999 110.267 -53.9999 88.8002C-53.9999 67.8002 -50.7332 49.8335 -44.1999 34.9002C-37.6666 19.5002 -29.4999 6.90017 -19.6999 -2.89983C-10.3665 -13.1665 -0.0998834 -21.0998 11.1001 -26.6998C21.8335 -32.7665 31.6334 -37.1998 40.5001 -39.9998L67.1001 -2.19983C54.5001 2.9335 43.5334 11.3335 34.2001 23.0002C24.8668 34.6668 19.7334 47.0335 18.8001 60.1002C29.5334 58.7002 39.8001 61.9668 49.6001 69.9002C58.9334 77.8335 63.6001 90.6668 63.6001 108.4Z" fill="#EBEBEB"/>
</svg>
